<?xml version="1.0" encoding="UTF-8" standalone="no"?>
<!DOCTYPE svg PUBLIC "-//W3C//DTD SVG 1.1//EN" "http://www.w3.org/Graphics/SVG/1.1/DTD/svg11.dtd">
<svg xmlns="http://www.w3.org/2000/svg" version="1.1" viewBox="0.00 0.00 298.00 97.00">
<g stroke-width="0.50" fill="none" stroke-linecap="butt">
<path stroke="#fa9941" vector-effect="non-scaling-stroke" d="
  M 61.08 9.26
  Q 61.46 10.01 60.00 10.19
  Q 59.39 10.27 59.54 10.86
  L 59.97 12.67
  Q 60.06 13.06 59.74 13.29
  L 58.08 14.48
  Q 57.68 14.76 57.61 15.24
  Q 57.14 18.10 54.78 19.77
  Q 50.88 22.51 49.68 27.45"
/>
<path stroke="#fa9941" vector-effect="non-scaling-stroke" d="
  M 26.93 37.51
  Q 23.95 34.73 21.34 37.97
  Q 21.10 38.28 20.72 38.41
  L 7.43 42.96
  A 1.22 1.19 8.4 0 0 6.86 43.37
  L 6.18 44.27
  Q 5.84 44.72 5.29 44.63
  L 3.14 44.31
  Q 2.52 44.22 2.32 44.82
  Q 2.18 45.21 2.22 45.68
  Q 2.22 45.69 2.17 45.68
  Q 2.15 45.68 2.12 45.68
  A 0.18 0.10 88.7 0 1 2.01 45.50
  L 1.99 41.56
  Q 1.99 41.56 1.91 41.56
  Q 1.88 41.56 1.85 41.56
  A 0.13 0.11 -87.2 0 0 1.74 41.68
  L 1.55 47.02"
/>
<path stroke="#cb73fd" vector-effect="non-scaling-stroke" d="
  M 166.20 46.70
  Q 163.97 45.08 160.87 45.77
  Q 160.44 45.87 160.29 45.45
  Q 160.11 44.92 159.79 44.72"
/>
</g>
<path fill="#fca236" d="
  M 61.08 9.26
  Q 61.46 10.01 60.00 10.19
  Q 59.39 10.27 59.54 10.86
  L 59.97 12.67
  Q 60.06 13.06 59.74 13.29
  L 58.08 14.48
  Q 57.68 14.76 57.61 15.24
  Q 57.14 18.10 54.78 19.77
  Q 50.88 22.51 49.68 27.45
  C 39.59 19.59 28.30 25.11 26.93 37.51
  Q 23.95 34.73 21.34 37.97
  Q 21.10 38.28 20.72 38.41
  L 7.43 42.96
  A 1.22 1.19 8.4 0 0 6.86 43.37
  L 6.18 44.27
  Q 5.84 44.72 5.29 44.63
  L 3.14 44.31
  Q 2.52 44.22 2.32 44.82
  Q 2.18 45.21 2.22 45.68
  Q 2.22 45.69 2.17 45.68
  Q 2.15 45.68 2.12 45.68
  A 0.18 0.10 88.7 0 1 2.01 45.50
  L 1.99 41.56
  Q 1.99 41.56 1.91 41.56
  Q 1.88 41.56 1.85 41.56
  A 0.13 0.11 -87.2 0 0 1.74 41.68
  L 1.55 47.02
  C 0.39 27.28 8.49 9.65 27.76 2.77
  Q 46.01 -3.74 61.08 9.26
  Z"
/>
<path fill="#51dbd7" d="
  M 132.19 50.56
  Q 131.12 49.98 130.80 48.44
  C 128.60 37.94 123.47 29.72 113.22 26.15
  C 106.21 23.70 95.42 24.74 87.32 24.75
  A 0.84 0.83 62.7 0 1 86.83 24.59
  C 78.58 18.45 71.23 9.88 64.26 1.97
  A 0.37 0.37 0.0 0 1 64.53 1.35
  Q 82.13 1.06 99.87 1.38
  Q 110.49 1.57 116.41 3.18
  C 138.02 9.09 152.47 27.14 153.79 49.47
  C 154.33 58.52 135.71 52.48 132.19 50.56
  Z"
/>
<path fill="#e982fd" d="
  M 166.20 46.70
  Q 163.97 45.08 160.87 45.77
  Q 160.44 45.87 160.29 45.45
  Q 160.11 44.92 159.79 44.72
  C 158.72 30.41 152.26 21.28 143.56 10.55
  C 140.01 6.18 146.13 2.02 149.73 1.60
  C 155.45 0.93 161.42 6.20 162.82 11.49
  Q 166.81 26.66 166.20 46.70
  Z"
/>
<path fill="#ee6d74" d="
  M 209.63 91.04
  C 204.02 99.86 190.53 96.04 190.52 84.96
  Q 190.49 55.58 190.49 25.62
  Q 190.49 23.90 188.80 24.24
  C 181.57 25.70 171.45 23.35 169.73 14.99
  C 168.19 7.53 173.99 2.24 181.32 2.14
  Q 202.61 1.84 223.91 2.14
  C 239.30 2.35 239.36 22.75 225.95 23.72
  Q 220.33 24.12 213.51 23.98
  A 1.17 1.16 1.0 0 0 212.32 25.12
  Q 211.86 50.17 212.02 75.75
  C 212.04 80.19 212.05 87.25 209.63 91.04
  Z"
/>
<path fill="#47b6ed" d="
  M 294.31 91.56
  Q 292.17 94.56 288.34 95.30
  C 282.20 96.48 277.07 91.56 274.78 86.24
  Q 265.82 65.39 247.58 24.03
  C 244.58 17.21 240.69 8.51 249.21 4.68
  Q 259.99 -0.15 265.46 10.80
  Q 272.71 25.32 292.85 72.48
  C 296.08 80.05 298.80 85.27 294.31 91.56
  Z"
/>
<path fill="#f8904b" d="
  M 61.08 9.26
  L 77.87 26.49
  Q 78.26 26.89 77.82 27.25
  Q 60.42 41.27 62.01 64.01
  Q 62.09 65.05 61.31 65.74
  C 51.69 74.37 34.27 73.84 23.61 67.19
  A 0.66 0.66 0.0 0 0 22.60 67.74
  Q 22.42 77.73 21.47 86.69
  Q 20.44 96.41 10.96 95.48
  C 4.51 94.85 1.50 89.81 1.49 83.57
  Q 1.47 65.27 1.55 47.02
  L 1.74 41.68
  A 0.13 0.11 -87.2 0 1 1.85 41.56
  Q 1.88 41.56 1.91 41.56
  Q 1.99 41.56 1.99 41.56
  L 2.01 45.50
  A 0.18 0.10 88.7 0 0 2.12 45.68
  Q 2.15 45.68 2.17 45.68
  Q 2.22 45.69 2.22 45.68
  Q 2.18 45.21 2.32 44.82
  Q 2.52 44.22 3.14 44.31
  L 5.29 44.63
  Q 5.84 44.72 6.18 44.27
  L 6.86 43.37
  A 1.22 1.19 8.4 0 1 7.43 42.96
  L 20.72 38.41
  Q 21.10 38.28 21.34 37.97
  Q 23.95 34.73 26.93 37.51
  Q 27.81 45.49 34.02 48.57
  C 47.26 55.13 59.81 38.69 49.68 27.45
  Q 50.88 22.51 54.78 19.77
  Q 57.14 18.10 57.61 15.24
  Q 57.68 14.76 58.08 14.48
  L 59.74 13.29
  Q 60.06 13.06 59.97 12.67
  L 59.54 10.86
  Q 59.39 10.27 60.00 10.19
  Q 61.46 10.01 61.08 9.26
  Z"
/>
<path fill="#e982fd" d="
  M 103.06 74.19
  C 112.29 76.17 121.86 66.85 125.15 59.30
  A 1.37 1.37 0.0 0 1 126.79 58.54
  Q 137.80 61.81 149.25 62.60
  A 0.64 0.63 -79.1 0 1 149.81 63.44
  Q 142.53 84.70 123.32 92.41
  C 109.44 97.99 94.06 96.64 82.32 87.21
  C 71.08 78.18 65.72 62.65 70.28 48.96
  C 72.57 42.06 83.25 26.67 92.42 33.74
  C 96.43 36.84 105.11 42.02 101.84 46.45
  A 1.55 1.52 -80.2 0 1 101.06 47.01
  C 84.39 52.00 88.91 71.15 103.06 74.19
  Z"
/>
<path fill="#e170fa" d="
  M 231.43 44.93
  C 238.77 25.56 252.46 48.75 250.09 56.19
  Q 246.54 67.29 240.76 87.51
  C 237.57 98.64 221.69 98.11 220.10 86.43
  C 219.50 82.03 220.34 77.43 221.78 72.73
  Q 225.58 60.35 231.43 44.93
  Z"
/>
<path fill="#ac63fd" d="
  M 159.79 44.72
  Q 160.11 44.92 160.29 45.45
  Q 160.44 45.87 160.87 45.77
  Q 163.97 45.08 166.20 46.70
  Q 166.29 63.46 166.24 80.14
  C 166.23 84.89 164.43 88.01 161.73 91.56
  C 155.81 99.34 140.97 93.03 148.00 82.69
  C 155.85 71.13 160.27 59.06 159.79 44.72
  Z"
/>
</svg>
